<svg id="Layer_1" data-name="Layer 1" xmlns="http://www.w3.org/2000/svg" viewBox="0 0 557.011 146.238"><defs><style>.cls-1{fill:#fff;}.cls-2{fill:#de1f26;}.cls-3{fill:none;}</style></defs><path class="cls-1" d="M519.726,51.192c0-.88-.69-1.332-1.618-1.332h-1.9v4.211h.808V52.62h.881l1,1.451h.976l-1.119-1.594A1.269,1.269,0,0,0,519.726,51.192Zm-1.689.762h-1.024V50.573h1.024c.547,0,.856.239.856.69C518.893,51.668,518.584,51.954,518.037,51.954Z"/><path class="cls-1" d="M517.822,47.935a4.107,4.107,0,0,0-4.091,4.114v.022a4.092,4.092,0,1,0,4.091-4.136Zm0,7.826a3.642,3.642,0,0,1-3.664-3.689v-.023a3.665,3.665,0,1,1,7.329-.024v.024A3.677,3.677,0,0,1,517.822,55.761Z"/><path class="cls-1" d="M169.769,96.114h-8.952l-4.338-10.822H133l-4.338,10.822h-9.02l19.28-48.179h11.637ZM153.243,77.228l-8.538-21.3-8.469,21.3Z"/><path class="cls-1" d="M229.67,96.114H223.2L194.759,63.029V96.114h-8.882V47.935h6.472L220.787,80.95V47.935h8.883Z"/><path class="cls-1" d="M296.062,71.99a23.921,23.921,0,0,1-23.687,24.124H251.649V47.935h20.726A23.861,23.861,0,0,1,296.062,71.99Zm-8.814,0A15.365,15.365,0,0,0,272.1,56.482H260.532V87.5H272.1A15.366,15.366,0,0,0,287.248,71.99Z"/><path class="cls-1" d="M314.649,96.114V47.935h8.882V96.114Z"/><path class="cls-1" d="M389.573,96.114h-8.952l-4.338-10.822H352.8l-4.338,10.822h-9.02l19.28-48.179h11.637ZM373.047,77.228l-8.538-21.3-8.469,21.3Z"/><path class="cls-1" d="M449.535,96.114h-6.473L414.625,63.029V96.114h-8.883V47.935h6.473L440.652,80.95V47.935h8.883Z"/><path class="cls-1" d="M103.291,65.5a8.9,8.9,0,0,0-8.91,8.9v21.71h8.91Z"/><path class="cls-1" d="M472.575,47.935c-4.125,0-7.47,3.665-7.5,8.2l0,.071h16.522V96.3c3.02-.072,5.882.1,8.868-.133v-.048h.151V56.206h4.05l0,0h7.12c4.045-.134,7.29-3.78,7.29-8.269Z"/><path class="cls-2" d="M103.291,58.574l-.146-.018a7.449,7.449,0,0,0-4.086.6,18.388,18.388,0,0,0-4.832,3.631l-.071.07a28.122,28.122,0,0,0-3,3.485L77.374,85.292H72.117L56.977,64.477V96.113H47.935V47.935h7.079l19.7,27.156L94.476,47.935h8.815Z"/><rect class="cls-3" width="557.011" height="146.238"/></svg>